<svg width="10" height="16" viewBox="0 0 10 16" fill="none" xmlns="http://www.w3.org/2000/svg">
<path d="M0.754993 6.93504L7.11499 0.575045C7.25444 0.434452 7.42034 0.322861 7.60313 0.246708C7.78592 0.170555 7.98198 0.131348 8.17999 0.131348C8.37801 0.131348 8.57407 0.170555 8.75686 0.246708C8.93965 0.322861 9.10555 0.434452 9.24499 0.575045C9.52437 0.856089 9.68118 1.23627 9.68118 1.63254C9.68118 2.02882 9.52437 2.409 9.24499 2.69004L3.93499 8.00004L9.24499 13.31C9.52437 13.5911 9.68118 13.9713 9.68118 14.3675C9.68118 14.7638 9.52437 15.144 9.24499 15.425C9.10483 15.5641 8.93861 15.6741 8.75585 15.7487C8.5731 15.8233 8.3774 15.8612 8.17999 15.86C7.98258 15.8612 7.78689 15.8233 7.60413 15.7487C7.42138 15.6741 7.25515 15.5641 7.11499 15.425L0.754993 9.06504C0.614401 8.9256 0.50281 8.7597 0.426657 8.57691C0.350504 8.39412 0.311296 8.19806 0.311296 8.00004C0.311296 7.80203 0.350504 7.60597 0.426657 7.42318C0.50281 7.24039 0.614401 7.07449 0.754993 6.93504Z" fill="#00AAFF"/>
</svg>
