<svg width="10" height="16" viewBox="0 0 10 16" fill="none" xmlns="http://www.w3.org/2000/svg">
<path d="M9.24504 6.93504L2.88504 0.575045C2.74559 0.434452 2.57969 0.322861 2.3969 0.246708C2.21411 0.170555 2.01805 0.131348 1.82004 0.131348C1.62202 0.131348 1.42596 0.170555 1.24317 0.246708C1.06038 0.322861 0.894481 0.434452 0.755036 0.575045C0.47566 0.856089 0.318848 1.23627 0.318848 1.63254C0.318848 2.02882 0.47566 2.409 0.755036 2.69004L6.06504 8.00004L0.755036 13.31C0.47566 13.5911 0.318848 13.9713 0.318848 14.3675C0.318848 14.7638 0.47566 15.144 0.755036 15.425C0.895196 15.5641 1.06142 15.6741 1.24418 15.7487C1.42693 15.8233 1.62263 15.8612 1.82004 15.86C2.01745 15.8612 2.21314 15.8233 2.3959 15.7487C2.57865 15.6741 2.74488 15.5641 2.88504 15.425L9.24504 9.06504C9.38563 8.9256 9.49722 8.7597 9.57337 8.57691C9.64953 8.39412 9.68873 8.19806 9.68873 8.00004C9.68873 7.80203 9.64953 7.60597 9.57337 7.42318C9.49722 7.24039 9.38563 7.07449 9.24504 6.93504Z" fill="white"/>
</svg>
