<svg width="23" height="22" viewBox="0 0 23 22" fill="none" xmlns="http://www.w3.org/2000/svg">
<path d="M11.5 4C10.1155 4 8.76216 4.41054 7.61101 5.17971C6.45987 5.94888 5.56266 7.04213 5.03285 8.32122C4.50303 9.6003 4.36441 11.0078 4.63451 12.3656C4.9046 13.7235 5.57129 14.9708 6.55026 15.9498C7.52922 16.9287 8.77651 17.5954 10.1344 17.8655C11.4922 18.1356 12.8997 17.997 14.1788 17.4672C15.4579 16.9373 16.5511 16.0401 17.3203 14.889C18.0895 13.7379 18.5 12.3845 18.5 11C18.5 9.14349 17.7625 7.36301 16.4498 6.05025C15.137 4.7375 13.3565 4 11.5 4ZM11.5 16C10.5111 16 9.5444 15.7068 8.72215 15.1574C7.89991 14.6079 7.25905 13.8271 6.88061 12.9134C6.50217 11.9998 6.40315 10.9945 6.59608 10.0246C6.789 9.05465 7.26521 8.16373 7.96447 7.46447C8.66373 6.76521 9.55465 6.289 10.5246 6.09608C11.4945 5.90315 12.4998 6.00217 13.4134 6.3806C14.3271 6.75904 15.1079 7.3999 15.6574 8.22215C16.2068 9.0444 16.5 10.0111 16.5 11C16.5 12.3261 15.9732 13.5979 15.0355 14.5355C14.0979 15.4732 12.8261 16 11.5 16ZM11.5 8C10.9067 8 10.3266 8.17595 9.83329 8.50559C9.33995 8.83524 8.95543 9.30377 8.72836 9.85195C8.5013 10.4001 8.44189 11.0033 8.55765 11.5853C8.6734 12.1672 8.95913 12.7018 9.37868 13.1213C9.79824 13.5409 10.3328 13.8266 10.9147 13.9424C11.4967 14.0581 12.0999 13.9987 12.6481 13.7716C13.1962 13.5446 13.6648 13.1601 13.9944 12.6667C14.3241 12.1734 14.5 11.5933 14.5 11C14.5 10.2044 14.1839 9.44129 13.6213 8.87868C13.0587 8.31607 12.2957 8 11.5 8ZM11.5 12C11.3022 12 11.1089 11.9414 10.9444 11.8315C10.78 11.7216 10.6518 11.5654 10.5761 11.3827C10.5004 11.2 10.4806 10.9989 10.5192 10.8049C10.5578 10.6109 10.653 10.4327 10.7929 10.2929C10.9327 10.153 11.1109 10.0578 11.3049 10.0192C11.4989 9.98063 11.7 10.0004 11.8827 10.0761C12.0654 10.1518 12.2216 10.28 12.3315 10.4444C12.4414 10.6089 12.5 10.8022 12.5 11C12.5 11.2652 12.3946 11.5196 12.2071 11.7071C12.0196 11.8946 11.7652 12 11.5 12ZM11.5 0C9.32441 0 7.19767 0.645139 5.38873 1.85383C3.57979 3.06253 2.16989 4.7805 1.33733 6.79048C0.504766 8.80047 0.286929 11.0122 0.711367 13.146C1.1358 15.2798 2.18345 17.2398 3.72183 18.7782C5.26021 20.3166 7.22022 21.3642 9.35401 21.7886C11.4878 22.2131 13.6995 21.9952 15.7095 21.1627C17.7195 20.3301 19.4375 18.9202 20.6462 17.1113C21.8549 15.3023 22.5 13.1756 22.5 11C22.5 8.08262 21.3411 5.28473 19.2782 3.22183C17.2153 1.15893 14.4174 0 11.5 0ZM11.5 20C9.71997 20 7.97991 19.4722 6.49987 18.4832C5.01983 17.4943 3.86628 16.0887 3.18509 14.4442C2.5039 12.7996 2.32567 10.99 2.67294 9.24419C3.0202 7.49836 3.87737 5.89471 5.13604 4.63604C6.39472 3.37737 7.99836 2.5202 9.74419 2.17293C11.49 1.82567 13.2996 2.0039 14.9442 2.68508C16.5887 3.36627 17.9943 4.51983 18.9832 5.99987C19.9722 7.47991 20.5 9.21997 20.5 11C20.5 13.387 19.5518 15.6761 17.864 17.364C16.1761 19.0518 13.887 20 11.5 20Z" fill="#00AAFF"/>
</svg>
