<svg width="18" height="23" viewBox="0 0 18 23" fill="none" xmlns="http://www.w3.org/2000/svg">
<path d="M9.71 16.79C9.66081 16.7448 9.60721 16.7046 9.55 16.67C9.49895 16.6304 9.44143 16.6 9.38 16.58C9.32045 16.5496 9.25623 16.5293 9.19 16.52C8.99842 16.4795 8.79895 16.5005 8.62 16.58C8.4959 16.6249 8.3832 16.6966 8.28989 16.7899C8.19657 16.8832 8.12491 16.9959 8.08 17.12C8.02402 17.2387 7.99662 17.3688 8 17.5C7.99841 17.63 8.02218 17.7591 8.07 17.88C8.12798 17.9995 8.202 18.1105 8.29 18.21C8.38344 18.3027 8.49426 18.376 8.61609 18.4258C8.73793 18.4755 8.86839 18.5008 9 18.5C9.13118 18.5034 9.26132 18.476 9.38 18.42C9.50119 18.3694 9.6128 18.2983 9.71 18.21C9.80268 18.1166 9.87601 18.0057 9.92577 17.8839C9.97554 17.7621 10.0008 17.6316 10 17.5C9.99842 17.3693 9.97124 17.2402 9.92 17.12C9.87241 16.9972 9.80104 16.8851 9.71 16.79ZM5.55 12.67C5.49895 12.6304 5.44143 12.6 5.38 12.58C5.32176 12.5426 5.25747 12.5155 5.19 12.5C5.06172 12.4701 4.92828 12.4701 4.8 12.5L4.62 12.56L4.44 12.65L4.29 12.77C4.10253 12.9667 3.99858 13.2283 4 13.5C3.99924 13.6316 4.02446 13.7621 4.07423 13.8839C4.12399 14.0057 4.19732 14.1166 4.29 14.21C4.3872 14.2983 4.49882 14.3694 4.62 14.42C4.7715 14.4822 4.93597 14.5063 5.09895 14.4901C5.26193 14.4739 5.41843 14.4179 5.55471 14.3271C5.69099 14.2362 5.80287 14.1133 5.88051 13.9691C5.95815 13.8249 5.99918 13.6638 6 13.5C5.99632 13.2352 5.89273 12.9816 5.71 12.79L5.55 12.67ZM5.71 16.79C5.6149 16.699 5.50275 16.6276 5.38 16.58C5.19898 16.4961 4.99698 16.4682 4.8 16.5L4.62 16.56C4.55628 16.5819 4.49575 16.6122 4.44 16.65C4.38761 16.6869 4.33752 16.727 4.29 16.77C4.19896 16.8651 4.12759 16.9772 4.08 17.1C4.02709 17.2197 3.99977 17.3491 3.99977 17.48C3.99977 17.6109 4.02709 17.7403 4.08 17.86C4.13064 17.9812 4.20167 18.0928 4.29 18.19C4.38178 18.2863 4.49185 18.3633 4.61376 18.4165C4.73567 18.4698 4.86698 18.4981 5 18.5C5.13118 18.5034 5.26132 18.476 5.38 18.42C5.50118 18.3694 5.6128 18.2983 5.71 18.21C5.79833 18.1128 5.86936 18.0012 5.92 17.88C5.97291 17.7603 6.00023 17.6309 6.00023 17.5C6.00023 17.3691 5.97291 17.2397 5.92 17.12C5.87241 16.9972 5.80104 16.8851 5.71 16.79ZM8.62 12.58C8.49725 12.6276 8.3851 12.699 8.29 12.79C8.10727 12.9816 8.00368 13.2352 8 13.5C8.00082 13.6638 8.04185 13.8249 8.11949 13.9691C8.19713 14.1133 8.30901 14.2362 8.44529 14.3271C8.58156 14.4179 8.73807 14.4739 8.90105 14.4901C9.06404 14.5063 9.2285 14.4822 9.38 14.42C9.50119 14.3694 9.6128 14.2983 9.71 14.21C9.80268 14.1166 9.87601 14.0057 9.92577 13.8839C9.97554 13.7621 10.0008 13.6316 10 13.5C9.99632 13.2352 9.89273 12.9816 9.71 12.79C9.56938 12.6512 9.3908 12.5572 9.19681 12.5199C9.00282 12.4825 8.80211 12.5034 8.62 12.58ZM13.71 16.79C13.6128 16.7017 13.5012 16.6306 13.38 16.58C13.1979 16.5034 12.9972 16.4825 12.8032 16.5199C12.6092 16.5572 12.4306 16.6512 12.29 16.79C12.199 16.8851 12.1276 16.9972 12.08 17.12C12.0271 17.2397 11.9998 17.3691 11.9998 17.5C11.9998 17.6309 12.0271 17.7603 12.08 17.88C12.1306 18.0012 12.2017 18.1128 12.29 18.21C12.3834 18.3027 12.4943 18.376 12.6161 18.4258C12.7379 18.4755 12.8684 18.5008 13 18.5C13.1312 18.5034 13.2613 18.476 13.38 18.42C13.5012 18.3694 13.6128 18.2983 13.71 18.21C13.8488 18.0694 13.9428 17.8908 13.9801 17.6968C14.0175 17.5028 13.9966 17.3021 13.92 17.12C13.8724 16.9972 13.801 16.8851 13.71 16.79ZM13 4.5H5C4.73478 4.5 4.48043 4.60536 4.29289 4.79289C4.10536 4.98043 4 5.23478 4 5.5V9.5C4 9.76522 4.10536 10.0196 4.29289 10.2071C4.48043 10.3946 4.73478 10.5 5 10.5H13C13.2652 10.5 13.5196 10.3946 13.7071 10.2071C13.8946 10.0196 14 9.76522 14 9.5V5.5C14 5.23478 13.8946 4.98043 13.7071 4.79289C13.5196 4.60536 13.2652 4.5 13 4.5ZM12 8.5H6V6.5H12V8.5ZM15 0.5H3C2.20435 0.5 1.44129 0.81607 0.87868 1.37868C0.316071 1.94129 0 2.70435 0 3.5V19.5C0 20.2956 0.316071 21.0587 0.87868 21.6213C1.44129 22.1839 2.20435 22.5 3 22.5H15C15.7956 22.5 16.5587 22.1839 17.1213 21.6213C17.6839 21.0587 18 20.2956 18 19.5V3.5C18 2.70435 17.6839 1.94129 17.1213 1.37868C16.5587 0.81607 15.7956 0.5 15 0.5ZM16 19.5C16 19.7652 15.8946 20.0196 15.7071 20.2071C15.5196 20.3946 15.2652 20.5 15 20.5H3C2.73478 20.5 2.48043 20.3946 2.29289 20.2071C2.10536 20.0196 2 19.7652 2 19.5V3.5C2 3.23478 2.10536 2.98043 2.29289 2.79289C2.48043 2.60536 2.73478 2.5 3 2.5H15C15.2652 2.5 15.5196 2.60536 15.7071 2.79289C15.8946 2.98043 16 3.23478 16 3.5V19.5ZM13.55 12.67C13.4989 12.6304 13.4414 12.6 13.38 12.58C13.3205 12.5496 13.2562 12.5293 13.19 12.52C13.0617 12.4901 12.9283 12.4901 12.8 12.52L12.62 12.58L12.44 12.67L12.29 12.79C12.1073 12.9816 12.0037 13.2352 12 13.5C12.0008 13.6638 12.0418 13.8249 12.1195 13.9691C12.1971 14.1133 12.309 14.2362 12.4453 14.3271C12.5816 14.4179 12.7381 14.4739 12.9011 14.4901C13.064 14.5063 13.2285 14.4822 13.38 14.42C13.5012 14.3694 13.6128 14.2983 13.71 14.21C13.8027 14.1166 13.876 14.0057 13.9258 13.8839C13.9755 13.7621 14.0008 13.6316 14 13.5C13.9963 13.2352 13.8927 12.9816 13.71 12.79L13.55 12.67Z" fill="white"/>
</svg>
