<svg width="20" height="20" viewBox="0 0 20 20" fill="none" xmlns="http://www.w3.org/2000/svg">
<path d="M7.87996 12.12L7.72996 12L7.54996 11.9L7.36996 11.85C7.2093 11.8178 7.0432 11.8256 6.88627 11.8727C6.72934 11.9198 6.58638 12.0047 6.46996 12.12C6.37104 12.2106 6.29555 12.3238 6.24996 12.45C6.19705 12.5697 6.16973 12.6991 6.16973 12.83C6.16973 12.9609 6.19705 13.0903 6.24996 13.21C6.35741 13.4503 6.54966 13.6426 6.78996 13.75C6.91018 13.8012 7.03928 13.8284 7.16996 13.83C7.30377 13.8275 7.43597 13.8004 7.55996 13.75C7.68184 13.7017 7.79123 13.6265 7.87996 13.53C7.9735 13.4387 8.04824 13.33 8.09996 13.21C8.14777 13.0891 8.17155 12.96 8.16996 12.83C8.17334 12.6988 8.14594 12.5687 8.08996 12.45C8.04414 12.3264 7.97256 12.2139 7.87996 12.12ZM1.50996 6.76C1.64226 6.75945 1.77315 6.73266 1.89502 6.68116C2.0169 6.62966 2.12734 6.55449 2.21996 6.46L6.45996 2.22C6.64621 2.03264 6.75075 1.77919 6.75075 1.515C6.75075 1.25082 6.64621 0.997366 6.45996 0.810004C6.2726 0.623753 6.01914 0.519211 5.75496 0.519211C5.49077 0.519211 5.23732 0.623753 5.04996 0.810004L0.809958 5.05C0.623707 5.23737 0.519165 5.49082 0.519165 5.755C0.519165 6.01919 0.623707 6.27264 0.809958 6.46C0.994588 6.64842 1.24619 6.75625 1.50996 6.76ZM19.19 13.54C19.0026 13.3538 18.7491 13.2492 18.485 13.2492C18.2208 13.2492 17.9673 13.3538 17.78 13.54L13.54 17.78C13.3995 17.9193 13.3036 18.0971 13.2642 18.2909C13.2248 18.4847 13.2438 18.6858 13.3187 18.8689C13.3936 19.0519 13.5211 19.2086 13.6851 19.3192C13.8491 19.4297 14.0422 19.4892 14.24 19.49C14.3723 19.4895 14.5031 19.4627 14.625 19.4112C14.7469 19.3597 14.8573 19.2845 14.95 19.19L19.19 15C19.2899 14.9065 19.3695 14.7934 19.424 14.6678C19.4784 14.5423 19.5065 14.4069 19.5065 14.27C19.5065 14.1331 19.4784 13.9977 19.424 13.8722C19.3695 13.7466 19.2899 13.6335 19.19 13.54ZM19.36 7.88C19.3619 7.08606 19.0491 6.32371 18.49 5.76L14.24 1.51C13.6677 0.966996 12.9089 0.664282 12.12 0.664282C11.3311 0.664282 10.5722 0.966996 9.99996 1.51L1.50996 10C0.948156 10.5625 0.632598 11.325 0.632598 12.12C0.632598 12.915 0.948156 13.6775 1.50996 14.24L5.75996 18.49C6.32246 19.0518 7.08496 19.3674 7.87996 19.3674C8.67496 19.3674 9.43746 19.0518 9.99996 18.49L18.49 10C19.0491 9.4363 19.3619 8.67395 19.36 7.88ZM17.07 8.59L8.58996 17.07C8.49699 17.1637 8.38639 17.2381 8.26453 17.2889C8.14268 17.3397 8.01197 17.3658 7.87996 17.3658C7.74795 17.3658 7.61724 17.3397 7.49538 17.2889C7.37352 17.2381 7.26292 17.1637 7.16996 17.07L2.92996 12.83C2.83623 12.737 2.76184 12.6264 2.71107 12.5046C2.6603 12.3827 2.63416 12.252 2.63416 12.12C2.63416 11.988 2.6603 11.8573 2.71107 11.7354C2.76184 11.6136 2.83623 11.503 2.92996 11.41L11.41 2.93C11.5029 2.83627 11.6135 2.76188 11.7354 2.71111C11.8572 2.66034 11.9879 2.63421 12.12 2.63421C12.252 2.63421 12.3827 2.66034 12.5045 2.71111C12.6264 2.76188 12.737 2.83627 12.83 2.93L17.07 7.17C17.1637 7.26297 17.2381 7.37357 17.2888 7.49543C17.3396 7.61729 17.3658 7.74799 17.3658 7.88C17.3658 8.01202 17.3396 8.14272 17.2888 8.26458C17.2381 8.38644 17.1637 8.49704 17.07 8.59Z" fill="#FB6164"/>
</svg>
