<svg width="19" height="19" viewBox="0 0 19 19" fill="none" xmlns="http://www.w3.org/2000/svg">
<path d="M10.29 5.13002C10.1963 5.22298 10.1219 5.33358 10.0711 5.45544C10.0203 5.5773 9.99421 5.708 9.99421 5.84002C9.99421 5.97203 10.0203 6.10273 10.0711 6.22459C10.1219 6.34645 10.1963 6.45705 10.29 6.55002L12.21 8.47002C12.303 8.56374 12.4136 8.63814 12.5354 8.68891C12.6573 8.73968 12.788 8.76581 12.92 8.76581C13.052 8.76581 13.1827 8.73968 13.3046 8.68891C13.4264 8.63814 13.537 8.56374 13.63 8.47002L17.71 4.39002C17.8194 4.30116 17.9087 4.1902 17.9722 4.06441C18.0356 3.93862 18.0718 3.80084 18.0783 3.66009C18.0848 3.51935 18.0615 3.37881 18.0099 3.24771C17.9583 3.1166 17.8796 2.99787 17.7789 2.89931C17.6782 2.80075 17.5578 2.72458 17.4257 2.6758C17.2935 2.62701 17.1525 2.6067 17.0119 2.61621C16.8713 2.62572 16.7343 2.66482 16.6099 2.73097C16.4855 2.79711 16.3765 2.8888 16.29 3.00002L12.92 6.35002L11.71 5.13002C11.617 5.03629 11.5064 4.96189 11.3846 4.91112C11.2627 4.86036 11.132 4.83422 11 4.83422C10.868 4.83422 10.7373 4.86036 10.6154 4.91112C10.4936 4.96189 10.383 5.03629 10.29 5.13002ZM16.91 8.64002C16.6463 8.66291 16.4024 8.78946 16.2318 8.99191C16.0612 9.19437 15.9778 9.45621 16 9.72002C16.005 9.81328 16.005 9.90675 16 10C16 11.8565 15.2625 13.637 13.9498 14.9498C12.637 16.2625 10.8565 17 9.00001 17H3.41001L4.05001 16.37C4.23626 16.1827 4.3408 15.9292 4.3408 15.665C4.3408 15.4008 4.23626 15.1474 4.05001 14.96C3.15566 14.0705 2.51829 12.9559 2.20526 11.734C1.89224 10.512 1.91521 9.22824 2.27174 8.0183C2.62827 6.80836 3.30511 5.71724 4.2307 4.8603C5.15629 4.00335 6.29623 3.41244 7.53001 3.15002C8.45419 2.96522 9.40582 2.96522 10.33 3.15002C10.4613 3.17628 10.5965 3.17642 10.7279 3.15043C10.8593 3.12444 10.9843 3.07283 11.0957 2.99854C11.2071 2.92426 11.3028 2.82875 11.3774 2.71747C11.4519 2.6062 11.5037 2.48134 11.53 2.35002C11.5563 2.21869 11.5564 2.08348 11.5304 1.95211C11.5044 1.82073 11.4528 1.69576 11.3785 1.58433C11.3043 1.4729 11.2087 1.37719 11.0975 1.30267C10.9862 1.22815 10.8613 1.17628 10.73 1.15002C9.53862 0.910281 8.3114 0.910281 7.12001 1.15002C5.1012 1.59068 3.29398 2.70894 1.99871 4.31892C0.703444 5.92891 -0.00186614 7.93367 3.70833e-06 10C0.00840423 12.0462 0.713841 14.0285 2 15.62L0.290004 17.29C0.151246 17.4306 0.0572498 17.6092 0.0198757 17.8032C-0.0174985 17.9972 0.00342421 18.1979 0.0800037 18.38C0.155024 18.5626 0.282422 18.719 0.446142 18.8293C0.609862 18.9396 0.802579 18.999 1 19H9.00001C11.387 19 13.6761 18.0518 15.364 16.364C17.0518 14.6761 18 12.387 18 10C18 9.85002 18 9.71002 18 9.56002C17.99 9.42762 17.9537 9.29856 17.8932 9.18035C17.8327 9.06214 17.7493 8.95715 17.6479 8.87151C17.5464 8.78587 17.4289 8.7213 17.3022 8.68155C17.1755 8.6418 17.0422 8.62769 16.91 8.64002Z" fill="#00AAFF"/>
</svg>
