<svg width="21" height="21" viewBox="0 0 21 21" fill="none" xmlns="http://www.w3.org/2000/svg">
<path d="M20.5 5.24002C20.5008 5.10841 20.4756 4.97795 20.4258 4.85611C20.376 4.73427 20.3027 4.62346 20.21 4.53002L15.97 0.290017C15.8766 0.197335 15.7658 0.12401 15.6439 0.0742455C15.5221 0.0244809 15.3916 -0.000744179 15.26 1.67143e-05C15.1284 -0.000744179 14.9979 0.0244809 14.8761 0.0742455C14.7543 0.12401 14.6435 0.197335 14.55 0.290017L11.72 3.12002L0.790017 14.05C0.697335 14.1435 0.62401 14.2543 0.574245 14.3761C0.524481 14.4979 0.499256 14.6284 0.500017 14.76V19C0.500017 19.2652 0.605374 19.5196 0.79291 19.7071C0.980446 19.8947 1.2348 20 1.50002 20H5.74002C5.87994 20.0076 6.01991 19.9857 6.15084 19.9358C6.28176 19.8858 6.40073 19.8089 6.50002 19.71L17.37 8.78001L20.21 6.00002C20.3013 5.9031 20.3757 5.79155 20.43 5.67002C20.4397 5.59031 20.4397 5.50973 20.43 5.43002C20.4347 5.38347 20.4347 5.33657 20.43 5.29002L20.5 5.24002ZM5.33002 18H2.50002V15.17L12.43 5.24002L15.26 8.07001L5.33002 18ZM16.67 6.66002L13.84 3.83002L15.26 2.42002L18.08 5.24002L16.67 6.66002Z" fill="#00AAFF"/>
</svg>
