<svg width="19" height="21" viewBox="0 0 19 21" fill="none" xmlns="http://www.w3.org/2000/svg">
<path d="M17.9912 0.00201433C17.8599 0.0019394 17.7298 0.027754 17.6084 0.0779821C17.4871 0.12821 17.3768 0.201867 17.2839 0.29474C17.1911 0.387614 17.1174 0.497883 17.0672 0.619242C17.017 0.740602 16.9911 0.870671 16.9912 1.00201V1.63873C16.1478 2.68444 15.0819 3.52893 13.871 4.11073C12.66 4.69254 11.3346 4.99702 9.99121 5.00201H3.99121C3.19583 5.00288 2.43327 5.31923 1.87085 5.88165C1.30843 6.44407 0.992079 7.20663 0.991211 8.00202V10.002C0.992079 10.7974 1.30843 11.56 1.87085 12.1224C2.43327 12.6848 3.19583 13.0011 3.99121 13.002H4.475L2.07227 18.6084C2.00698 18.7605 1.98047 18.9264 1.99512 19.0912C2.00978 19.256 2.06514 19.4147 2.15624 19.5528C2.24734 19.691 2.37133 19.8043 2.51706 19.8827C2.6628 19.9611 2.82572 20.0021 2.99121 20.002H6.99121C7.18696 20.0021 7.37843 19.9447 7.54182 19.8369C7.7052 19.7291 7.83329 19.5756 7.91016 19.3956L10.6339 13.04C11.8646 13.1304 13.0636 13.472 14.157 14.0439C15.2505 14.6158 16.215 15.4058 16.9912 16.3651V17.002C16.9912 17.2672 17.0966 17.5216 17.2841 17.7091C17.4716 17.8967 17.726 18.002 17.9912 18.002C18.2564 18.002 18.5108 17.8967 18.6983 17.7091C18.8859 17.5216 18.9912 17.2672 18.9912 17.002V1.00201C18.9913 0.870671 18.9655 0.740601 18.9152 0.619241C18.865 0.497881 18.7914 0.387611 18.6985 0.294738C18.6056 0.201864 18.4953 0.128207 18.374 0.0779795C18.2526 0.0277518 18.1226 0.00193808 17.9912 0.00201433ZM3.99121 11.002C3.72605 11.0018 3.4718 10.8964 3.2843 10.7089C3.0968 10.5214 2.99139 10.2672 2.99121 10.002V8.00202C2.99139 7.73685 3.09681 7.48261 3.2843 7.29511C3.4718 7.10761 3.72605 7.0022 3.99121 7.00201H4.99121V11.002H3.99121ZM6.33203 18.002H4.50781L6.65039 13.002H8.47461L6.33203 18.002ZM16.9912 13.5238C15.0195 11.8994 12.5459 11.0083 9.99121 11.002H6.99121V7.00197H9.99121C12.5459 6.99544 15.0195 6.10412 16.9912 4.47962V13.5238Z" fill="#00AAFF"/>
</svg>
