<svg width="19" height="21" viewBox="0 0 19 21" fill="none" xmlns="http://www.w3.org/2000/svg">
<path d="M15.5 5.99998H15.15C15.3782 5.53274 15.4979 5.01996 15.5 4.49998C15.503 3.8033 15.2975 3.12167 14.9098 2.54281C14.5221 1.96395 13.9701 1.51436 13.3247 1.25192C12.6794 0.98947 11.9703 0.926179 11.2886 1.07019C10.607 1.2142 9.98405 1.55892 9.5 2.05998C9.01595 1.55892 8.39302 1.2142 7.71138 1.07019C7.02975 0.926179 6.32061 0.98947 5.67525 1.25192C5.0299 1.51436 4.47786 1.96395 4.09019 2.54281C3.70252 3.12167 3.49697 3.8033 3.5 4.49998C3.50213 5.01996 3.62178 5.53274 3.85 5.99998H3.5C2.70435 5.99998 1.94129 6.31605 1.37868 6.87866C0.816071 7.44127 0.5 8.20433 0.5 8.99998V11C0.5 11.2652 0.605357 11.5195 0.792893 11.7071C0.98043 11.8946 1.23478 12 1.5 12H2.5V18C2.5 18.7956 2.81607 19.5587 3.37868 20.1213C3.94129 20.6839 4.70435 21 5.5 21H13.5C14.2956 21 15.0587 20.6839 15.6213 20.1213C16.1839 19.5587 16.5 18.7956 16.5 18V12H17.5C17.7652 12 18.0196 11.8946 18.2071 11.7071C18.3946 11.5195 18.5 11.2652 18.5 11V8.99998C18.5 8.20433 18.1839 7.44127 17.6213 6.87866C17.0587 6.31605 16.2956 5.99998 15.5 5.99998ZM8.5 19H5.5C5.23478 19 4.98043 18.8946 4.79289 18.7071C4.60536 18.5196 4.5 18.2652 4.5 18V12H8.5V19ZM8.5 9.99998H2.5V8.99998C2.5 8.73476 2.60536 8.48041 2.79289 8.29287C2.98043 8.10533 3.23478 7.99998 3.5 7.99998H8.5V9.99998ZM8.5 5.99998H7C6.70333 5.99998 6.41332 5.912 6.16665 5.74718C5.91997 5.58236 5.72771 5.34809 5.61418 5.074C5.50065 4.79991 5.47094 4.49831 5.52882 4.20734C5.5867 3.91637 5.72956 3.6491 5.93934 3.43932C6.14912 3.22954 6.41639 3.08668 6.70736 3.0288C6.99834 2.97092 7.29994 3.00063 7.57403 3.11416C7.84811 3.22769 8.08238 3.41995 8.2472 3.66662C8.41203 3.9133 8.5 4.2033 8.5 4.49998V5.99998ZM10.5 4.49998C10.5 4.2033 10.588 3.9133 10.7528 3.66662C10.9176 3.41995 11.1519 3.22769 11.426 3.11416C11.7001 3.00063 12.0017 2.97092 12.2926 3.0288C12.5836 3.08668 12.8509 3.22954 13.0607 3.43932C13.2704 3.6491 13.4133 3.91637 13.4712 4.20734C13.5291 4.49831 13.4994 4.79991 13.3858 5.074C13.2723 5.34809 13.08 5.58236 12.8334 5.74718C12.5867 5.912 12.2967 5.99998 12 5.99998H10.5V4.49998ZM14.5 18C14.5 18.2652 14.3946 18.5196 14.2071 18.7071C14.0196 18.8946 13.7652 19 13.5 19H10.5V12H14.5V18ZM16.5 9.99998H10.5V7.99998H15.5C15.7652 7.99998 16.0196 8.10533 16.2071 8.29287C16.3946 8.48041 16.5 8.73476 16.5 8.99998V9.99998Z" fill="#00AAFF"/>
</svg>
