<svg width="21" height="22" viewBox="0 0 21 22" fill="none" xmlns="http://www.w3.org/2000/svg">
<path d="M10.5 9V7C10.4983 6.38106 10.3051 5.7778 9.94707 5.27293C9.589 4.76807 9.08355 4.38631 8.5 4.18V3C8.5 2.20435 8.18393 1.44129 7.62132 0.87868C7.05871 0.31607 6.29565 0 5.5 0C4.70435 0 3.94129 0.31607 3.37868 0.87868C2.81607 1.44129 2.5 2.20435 2.5 3V4.18C1.91645 4.38631 1.411 4.76807 1.05294 5.27293C0.694879 5.7778 0.50174 6.38106 0.5 7V9C0.5 9.79565 0.816071 10.5587 1.37868 11.1213C1.94129 11.6839 2.70435 12 3.5 12H7.5C8.29565 12 9.05871 11.6839 9.62132 11.1213C10.1839 10.5587 10.5 9.79565 10.5 9ZM4.5 3C4.5 2.73478 4.60536 2.48043 4.79289 2.29289C4.98043 2.10536 5.23479 2 5.5 2C5.76522 2 6.01957 2.10536 6.20711 2.29289C6.39465 2.48043 6.5 2.73478 6.5 3V4H4.5V3ZM2.5 9V7C2.5 6.73478 2.60536 6.48043 2.79289 6.29289C2.98043 6.10536 3.23478 6 3.5 6H7.5C7.76522 6 8.01957 6.10536 8.20711 6.29289C8.39465 6.48043 8.5 6.73478 8.5 7V9C8.5 9.26522 8.39465 9.51957 8.20711 9.70711C8.01957 9.89464 7.76522 10 7.5 10H3.5C3.23478 10 2.98043 9.89464 2.79289 9.70711C2.60536 9.51957 2.5 9.26522 2.5 9ZM17.5 6H13.5C13.2348 6 12.9804 6.10536 12.7929 6.29289C12.6054 6.48043 12.5 6.73478 12.5 7C12.5 7.26522 12.6054 7.51957 12.7929 7.70711C12.9804 7.89464 13.2348 8 13.5 8H17.5C17.7652 8 18.0196 8.10536 18.2071 8.29289C18.3946 8.48043 18.5 8.73478 18.5 9V18.72L16.93 17.27C16.7456 17.0973 16.5026 17.0009 16.25 17H7.5C7.23479 17 6.98043 16.8946 6.7929 16.7071C6.60536 16.5196 6.5 16.2652 6.5 16V15C6.5 14.7348 6.39465 14.4804 6.20711 14.2929C6.01957 14.1054 5.76522 14 5.5 14C5.23479 14 4.98043 14.1054 4.79289 14.2929C4.60536 14.4804 4.5 14.7348 4.5 15V16C4.5 16.7956 4.81607 17.5587 5.37868 18.1213C5.94129 18.6839 6.70435 19 7.5 19H15.86L18.86 21.73C19.0342 21.8936 19.2613 21.9894 19.5 22C19.6372 21.9985 19.7728 21.9714 19.9 21.92C20.0789 21.8419 20.231 21.7132 20.3376 21.5497C20.4442 21.3863 20.5007 21.1952 20.5 21V9C20.5 8.20435 20.1839 7.44129 19.6213 6.87868C19.0587 6.31607 18.2957 6 17.5 6Z" fill="#00AAFF"/>
</svg>
