<svg width="46" height="46" viewBox="0 0 46 46" fill="none" xmlns="http://www.w3.org/2000/svg">
<path d="M26.225 10.825C25.9907 11.0574 25.8047 11.3339 25.6778 11.6386C25.5509 11.9432 25.4855 12.27 25.4855 12.6C25.4855 12.9301 25.5509 13.2568 25.6778 13.5615C25.8047 13.8661 25.9907 14.1426 26.225 14.375L31.025 19.175C31.2574 19.4094 31.5339 19.5953 31.8386 19.7223C32.1432 19.8492 32.47 19.9145 32.8 19.9145C33.13 19.9145 33.4568 19.8492 33.7615 19.7223C34.0661 19.5953 34.3426 19.4094 34.575 19.175L44.775 8.97504C45.0484 8.7529 45.2717 8.47551 45.4304 8.16104C45.5891 7.84656 45.6795 7.5021 45.6958 7.15024C45.712 6.79837 45.6538 6.44704 45.5248 6.11927C45.3958 5.7915 45.199 5.49468 44.9472 5.24829C44.6955 5.00189 44.3946 4.81146 44.0641 4.68949C43.7337 4.56752 43.3812 4.51675 43.0297 4.54052C42.6783 4.56429 42.3358 4.66206 42.0248 4.82742C41.7138 4.99277 41.4413 5.22199 41.225 5.50004L32.8 13.875L29.775 10.825C29.5426 10.5907 29.2661 10.4047 28.9615 10.2778C28.6568 10.1509 28.33 10.0855 28 10.0855C27.67 10.0855 27.3432 10.1509 27.0386 10.2778C26.7339 10.4047 26.4574 10.5907 26.225 10.825ZM42.775 19.6C42.1156 19.6573 41.5059 19.9737 41.0794 20.4798C40.6529 20.9859 40.4446 21.6405 40.5 22.3C40.5125 22.5332 40.5125 22.7669 40.5 23C40.5 27.6413 38.6563 32.0925 35.3744 35.3744C32.0925 38.6563 27.6413 40.5 23 40.5H9.02501L10.625 38.925C11.0906 38.4566 11.352 37.823 11.352 37.1625C11.352 36.5021 11.0906 35.8684 10.625 35.4C8.38915 33.1763 6.79571 30.3897 6.01316 27.3349C5.23061 24.2801 5.28803 21.0706 6.17935 18.0458C7.07067 15.0209 8.76276 12.2931 11.0767 10.1507C13.3907 8.00839 16.2406 6.53109 19.325 5.87504C21.6355 5.41304 24.0145 5.41304 26.325 5.87504C26.6533 5.9407 26.9913 5.94105 27.3198 5.87608C27.6482 5.81111 27.9606 5.68208 28.2392 5.49636C28.5178 5.31064 28.7571 5.07187 28.9434 4.79369C29.1297 4.5155 29.2593 4.20334 29.325 3.87504C29.3907 3.54673 29.391 3.20871 29.326 2.88027C29.2611 2.55183 29.132 2.2394 28.9463 1.96083C28.7606 1.68225 28.5218 1.44298 28.2437 1.25668C27.9655 1.07038 27.6533 0.9407 27.325 0.875039C24.3465 0.275703 21.2785 0.275703 18.3 0.875039C13.253 1.97671 8.73494 4.77234 5.49678 8.79731C2.25861 12.8223 0.495335 17.8342 0.500009 23C0.521011 28.1156 2.2846 33.0713 5.50001 37.05L1.22501 41.225C0.878115 41.5766 0.643124 42.023 0.549689 42.508C0.456254 42.993 0.508561 43.4948 0.700009 43.95C0.887559 44.4066 1.20605 44.7974 1.61535 45.0732C2.02466 45.3491 2.50645 45.4976 3.00001 45.5H23C28.9674 45.5 34.6903 43.1295 38.9099 38.9099C43.1295 34.6904 45.5 28.9674 45.5 23C45.5 22.625 45.5 22.275 45.5 21.9C45.4749 21.5691 45.3841 21.2464 45.233 20.9509C45.0818 20.6553 44.8733 20.3929 44.6197 20.1788C44.366 19.9647 44.0723 19.8032 43.7555 19.7039C43.4388 19.6045 43.1055 19.5692 42.775 19.6Z" fill="url(#paint0_linear_27_579)"/>
<defs>
<linearGradient id="paint0_linear_27_579" x1="0.5" y1="23.2715" x2="45.6984" y2="23.2715" gradientUnits="userSpaceOnUse">
<stop stop-color="#00AAFF"/>
<stop offset="1" stop-color="#48C2FF"/>
</linearGradient>
</defs>
</svg>
