<svg width="56" height="56" viewBox="0 0 56 56" fill="none" xmlns="http://www.w3.org/2000/svg">
<path d="M13 30.5H3C2.33696 30.5 1.70107 30.7634 1.23223 31.2322C0.763392 31.7011 0.5 32.337 0.5 33V53C0.5 53.663 0.763392 54.2989 1.23223 54.7678C1.70107 55.2366 2.33696 55.5 3 55.5H13C13.663 55.5 14.2989 55.2366 14.7678 54.7678C15.2366 54.2989 15.5 53.663 15.5 53V33C15.5 32.337 15.2366 31.7011 14.7678 31.2322C14.2989 30.7634 13.663 30.5 13 30.5ZM10.5 50.5H5.5V35.5H10.5V50.5ZM53 20.5H43C42.337 20.5 41.7011 20.7634 41.2322 21.2322C40.7634 21.7011 40.5 22.337 40.5 23V53C40.5 53.663 40.7634 54.2989 41.2322 54.7678C41.7011 55.2366 42.337 55.5 43 55.5H53C53.663 55.5 54.2989 55.2366 54.7678 54.7678C55.2366 54.2989 55.5 53.663 55.5 53V23C55.5 22.337 55.2366 21.7011 54.7678 21.2322C54.2989 20.7634 53.663 20.5 53 20.5ZM50.5 50.5H45.5V25.5H50.5V50.5ZM33 0.5H23C22.337 0.5 21.7011 0.763392 21.2322 1.23223C20.7634 1.70107 20.5 2.33696 20.5 3V53C20.5 53.663 20.7634 54.2989 21.2322 54.7678C21.7011 55.2366 22.337 55.5 23 55.5H33C33.663 55.5 34.2989 55.2366 34.7678 54.7678C35.2366 54.2989 35.5 53.663 35.5 53V3C35.5 2.33696 35.2366 1.70107 34.7678 1.23223C34.2989 0.763392 33.663 0.5 33 0.5ZM30.5 50.5H25.5V5.5H30.5V50.5Z" fill="url(#paint0_linear_27_608)"/>
<defs>
<linearGradient id="paint0_linear_27_608" x1="0.5" y1="28.3767" x2="55.5" y2="28.3767" gradientUnits="userSpaceOnUse">
<stop stop-color="#00AAFF"/>
<stop offset="1" stop-color="#48C2FF"/>
</linearGradient>
</defs>
</svg>
