<svg width="50" height="50" viewBox="0 0 50 50" fill="none" xmlns="http://www.w3.org/2000/svg">
<path d="M47.675 37.075L42.5 31.775C41.3869 30.7168 39.9827 30.0158 38.4681 29.7618C36.9534 29.5079 35.3974 29.7127 34 30.35L31.75 28.1C34.4014 24.5573 35.6123 20.1417 35.1389 15.7421C34.6655 11.3425 32.5429 7.28554 29.1986 4.38797C25.8542 1.49041 21.5363 -0.032632 17.1142 0.125437C12.692 0.283506 8.49388 2.11095 5.36493 5.2399C2.23598 8.36884 0.408536 12.567 0.250467 16.9891C0.0923985 21.4113 1.61544 25.7292 4.51301 29.0735C7.41057 32.4179 11.4675 34.5404 15.8671 35.0138C20.2667 35.4872 24.6823 34.2764 28.225 31.625L30.45 33.85C29.7377 35.2491 29.4825 36.8364 29.7202 38.3882C29.9579 39.9401 30.6766 41.3782 31.775 42.5L37.075 47.8C38.4813 49.2045 40.3875 49.9934 42.375 49.9934C44.3625 49.9934 46.2688 49.2045 47.675 47.8C48.3894 47.1015 48.9569 46.2673 49.3445 45.3464C49.732 44.4256 49.9316 43.4366 49.9316 42.4375C49.9316 41.4384 49.732 40.4494 49.3445 39.5285C48.9569 38.6076 48.3894 37.7735 47.675 37.075ZM26.475 26.475C24.7256 28.22 22.4983 29.4073 20.0744 29.8871C17.6505 30.3669 15.1387 30.1175 12.8565 29.1704C10.5743 28.2234 8.62391 26.6212 7.25179 24.5663C5.87967 22.5114 5.14735 20.0959 5.14735 17.625C5.14735 15.1541 5.87967 12.7386 7.25179 10.6836C8.62391 8.6287 10.5743 7.02653 12.8565 6.07951C15.1387 5.13248 17.6505 4.8831 20.0744 5.36285C22.4983 5.84261 24.7256 7.02998 26.475 8.77497C27.6391 9.93612 28.5627 11.3155 29.1928 12.8341C29.823 14.3528 30.1474 15.9808 30.1474 17.625C30.1474 19.2692 29.823 20.8972 29.1928 22.4158C28.5627 23.9344 27.6391 25.3138 26.475 26.475ZM44.15 44.15C43.9176 44.3843 43.6411 44.5703 43.3364 44.6972C43.0318 44.8241 42.705 44.8895 42.375 44.8895C42.045 44.8895 41.7182 44.8241 41.4136 44.6972C41.1089 44.5703 40.8324 44.3843 40.6 44.15L35.3 38.85C35.0657 38.6176 34.8797 38.3411 34.7528 38.0364C34.6259 37.7318 34.5605 37.405 34.5605 37.075C34.5605 36.7449 34.6259 36.4182 34.7528 36.1135C34.8797 35.8089 35.0657 35.5324 35.3 35.3C35.5324 35.0657 35.8089 34.8797 36.1136 34.7527C36.4182 34.6258 36.745 34.5605 37.075 34.5605C37.405 34.5605 37.7318 34.6258 38.0364 34.7527C38.3411 34.8797 38.6176 35.0657 38.85 35.3L44.15 40.6C44.3843 40.8324 44.5703 41.1089 44.6972 41.4135C44.8242 41.7182 44.8895 42.0449 44.8895 42.375C44.8895 42.705 44.8242 43.0318 44.6972 43.3364C44.5703 43.6411 44.3843 43.9176 44.15 44.15Z" fill="url(#paint0_linear_27_572)"/>
<defs>
<linearGradient id="paint0_linear_27_572" x1="0.239289" y1="25.3954" x2="49.9316" y2="25.3954" gradientUnits="userSpaceOnUse">
<stop stop-color="#00AAFF"/>
<stop offset="1" stop-color="#48C2FF"/>
</linearGradient>
</defs>
</svg>
