<svg width="50" height="50" viewBox="0 0 50 50" fill="none" xmlns="http://www.w3.org/2000/svg">
<path d="M27.5 22.5H12.5C11.837 22.5 11.2011 22.7634 10.7322 23.2322C10.2634 23.7011 10 24.337 10 25C10 25.663 10.2634 26.2989 10.7322 26.7678C11.2011 27.2366 11.837 27.5 12.5 27.5H27.5C28.163 27.5 28.7989 27.2366 29.2678 26.7678C29.7366 26.2989 30 25.663 30 25C30 24.337 29.7366 23.7011 29.2678 23.2322C28.7989 22.7634 28.163 22.5 27.5 22.5ZM37.5 12.5H12.5C11.837 12.5 11.2011 12.7634 10.7322 13.2322C10.2634 13.7011 10 14.337 10 15C10 15.663 10.2634 16.2989 10.7322 16.7678C11.2011 17.2366 11.837 17.5 12.5 17.5H37.5C38.163 17.5 38.7989 17.2366 39.2678 16.7678C39.7366 16.2989 40 15.663 40 15C40 14.337 39.7366 13.7011 39.2678 13.2322C38.7989 12.7634 38.163 12.5 37.5 12.5ZM42.5 0H7.5C5.51088 0 3.60322 0.790177 2.1967 2.1967C0.790177 3.60322 0 5.51088 0 7.5V32.5C0 34.4891 0.790177 36.3968 2.1967 37.8033C3.60322 39.2098 5.51088 40 7.5 40H36.475L45.725 49.275C45.9586 49.5067 46.2356 49.69 46.5402 49.8144C46.8448 49.9388 47.171 50.0019 47.5 50C47.8279 50.0084 48.1533 49.94 48.45 49.8C48.9065 49.6124 49.2974 49.294 49.5732 48.8847C49.849 48.4754 49.9975 47.9936 50 47.5V7.5C50 5.51088 49.2098 3.60322 47.8033 2.1967C46.3968 0.790177 44.4891 0 42.5 0ZM45 41.475L39.275 35.725C39.0414 35.4933 38.7644 35.31 38.4598 35.1856C38.1552 35.0612 37.829 34.9981 37.5 35H7.5C6.83696 35 6.20107 34.7366 5.73223 34.2678C5.26339 33.7989 5 33.163 5 32.5V7.5C5 6.83696 5.26339 6.20107 5.73223 5.73223C6.20107 5.26339 6.83696 5 7.5 5H42.5C43.163 5 43.7989 5.26339 44.2678 5.73223C44.7366 6.20107 45 6.83696 45 7.5V41.475Z" fill="url(#paint0_linear_27_594)"/>
<defs>
<linearGradient id="paint0_linear_27_594" x1="2.47048e-07" y1="25.3428" x2="50" y2="25.3428" gradientUnits="userSpaceOnUse">
<stop stop-color="#00AAFF"/>
<stop offset="1" stop-color="#48C2FF"/>
</linearGradient>
</defs>
</svg>
