<svg width="50" height="36" viewBox="0 0 50 36" fill="none" xmlns="http://www.w3.org/2000/svg">
<path d="M35 3C35 2.33696 34.7366 1.70107 34.2678 1.23223C33.7989 0.763393 33.163 0.5 32.5 0.5H2.5C1.83696 0.5 1.20107 0.763393 0.732233 1.23223C0.263392 1.70107 0 2.33696 0 3C0 3.66304 0.263392 4.29893 0.732233 4.76777C1.20107 5.23661 1.83696 5.5 2.5 5.5H15V33C15 33.663 15.2634 34.2989 15.7322 34.7678C16.2011 35.2366 16.837 35.5 17.5 35.5C18.163 35.5 18.7989 35.2366 19.2678 34.7678C19.7366 34.2989 20 33.663 20 33V5.5H32.5C33.163 5.5 33.7989 5.23661 34.2678 4.76777C34.7366 4.29893 35 3.66304 35 3ZM47.5 15.5H32.5C31.837 15.5 31.2011 15.7634 30.7322 16.2322C30.2634 16.7011 30 17.337 30 18C30 18.663 30.2634 19.2989 30.7322 19.7678C31.2011 20.2366 31.837 20.5 32.5 20.5H37.5V33C37.5 33.663 37.7634 34.2989 38.2322 34.7678C38.7011 35.2366 39.337 35.5 40 35.5C40.663 35.5 41.2989 35.2366 41.7678 34.7678C42.2366 34.2989 42.5 33.663 42.5 33V20.5H47.5C48.163 20.5 48.7989 20.2366 49.2678 19.7678C49.7366 19.2989 50 18.663 50 18C50 17.337 49.7366 16.7011 49.2678 16.2322C48.7989 15.7634 48.163 15.5 47.5 15.5Z" fill="url(#paint0_linear_27_586)"/>
<defs>
<linearGradient id="paint0_linear_27_586" x1="2.47048e-07" y1="18.2397" x2="50" y2="18.2397" gradientUnits="userSpaceOnUse">
<stop stop-color="#00AAFF"/>
<stop offset="1" stop-color="#48C2FF"/>
</linearGradient>
</defs>
</svg>
